HIERARCHY
ROOT Hips
{
  OFFSET 13.6774 106.653 -34.4427
  CHANNELS 6 Xposition Yposition Zposition Zrotation Xrotation Yrotation
  JOINT ToSpine
  {
    OFFSET -2.69724 7.43032 -0.144315
    CHANNELS 3 Zrotation Xrotation Yrotation
    JOINT Spine
    {
      OFFSET -0.0310711 10.7595 1.96963
      CHANNELS 3 Zrotation Xrotation Yrotation
      JOINT Spine1
      {
        OFFSET 19.9056 3.91189 0.764692
        CHANNELS 3 Zrotation Xrotation Yrotation
        JOINT Neck
        {
          OFFSET 25.9749 7.03908 -0.130764
          CHANNELS 3 Zrotation Xrotation Yrotation
          JOINT Head
          {
            OFFSET 9.52751 0.295786 -0.907742
            CHANNELS 3 Zrotation Xrotation Yrotation
            End Site
            {
              OFFSET 16.4037 0.713936 2.7358
            }
          }
        }
        JOINT LeftShoulder
        {
          OFFSET 17.7449 4.33886 11.7777
          CHANNELS 3 Zrotation Xrotation Yrotation
          JOINT LeftArm
          {
            OFFSET 0.911315 1.27913 9.80584
            CHANNELS 3 Zrotation Xrotation Yrotation
            JOINT LeftForeArm
            {
              OFFSET 28.6126 1.18197 -3.53199
              CHANNELS 3 Zrotation Xrotation Yrotation
              JOINT LeftHand
              {
                OFFSET 27.5088 0.0218783 0.327423
                CHANNELS 3 Zrotation Xrotation Yrotation
                End Site
                {
                  OFFSET 18.6038 -0.000155887 0.382096
                }
              }
            }
          }
        }
        JOINT RightShoulder
        {
          OFFSET 17.1009 2.89543 -12.2328
          CHANNELS 3 Zrotation Xrotation Yrotation
          JOINT RightArm
          {
            OFFSET 1.4228 0.178766 -10.211
            CHANNELS 3 Zrotation Xrotation Yrotation
            JOINT RightForeArm
            {
              OFFSET 28.733 1.87905 2.64907
              CHANNELS 3 Zrotation Xrotation Yrotation
              JOINT RightHand
              {
                OFFSET 27.4588 0.290562 -0.101845
                CHANNELS 3 Zrotation Xrotation Yrotation
                End Site
                {
                  OFFSET 17.8396 -0.255518 -0.000602873
                }
              }
            }
          }
        }
      }
    }
  }
  JOINT LeftUpLeg
  {
    OFFSET -5.61296 -2.22332 -10.2353
    CHANNELS 3 Zrotation Xrotation Yrotation
    JOINT LeftLeg
    {
      OFFSET 2.56703 -44.7417 -7.93097
      CHANNELS 3 Zrotation Xrotation Yrotation
      JOINT LeftFoot
      {
        OFFSET 3.16933 -46.5642 -3.96578
        CHANNELS 3 Zrotation Xrotation Yrotation
        JOINT LeftToeBase
        {
          OFFSET 0.346054 -6.02161 12.8035
          CHANNELS 3 Zrotation Xrotation Yrotation
          End Site
          {
            OFFSET 0.134235 -1.35082 5.13018
          }
        }
      }
    }
  }
  JOINT RightUpLeg
  {
    OFFSET -5.7928 -1.72406 10.6446
    CHANNELS 3 Zrotation Xrotation Yrotation
    JOINT RightLeg
    {
      OFFSET -2.57161 -44.7178 -7.85259
      CHANNELS 3 Zrotation Xrotation Yrotation
      JOINT RightFoot
      {
        OFFSET -3.10148 -46.5936 -4.03391
        CHANNELS 3 Zrotation Xrotation Yrotation
        JOINT RightToeBase
        {
          OFFSET -0.0828122 -6.13587 12.8035
          CHANNELS 3 Zrotation Xrotation Yrotation
          End Site
          {
            OFFSET -0.131328 -1.35082 5.13018
          }
        }
      }
    }
  }
}
MOTION
Frames: 7
Frame Time: 0.03333333333333333
0.0000 93.1000 0.0000 -43.1941 -42.9353 -143.8660 -71.0115 0.4473 87.9897 89.3291 62.9004 -2.5687 4.2062 10.7948 11.1419 -130.3163 18.8920 -179.9968 -133.1737 52.7548 171.6439 -3.2878 -11.6398 -13.0512 -108.4146 36.0750 -81.8186 -4.4117 2.0914 -126.9545 -2.3575 1.5436 0.6763 -2.7235 0.9288 22.9397 -68.9372 -45.3057 124.9697 1.9482 2.0925 131.2276 -1.2082 -2.8082 -4.2197 -67.7981 2.7764 103.2495 -2.7398 36.2492 -7.0758 -5.5000 -9.3726 0.9908 11.0511 -21.1314 14.8687 -12.0292 16.3329 104.9762 5.8895 57.9257 12.9237 -4.0641 -10.6059 1.2912 -1.3761 -6.4026 -2.5282 
0.0000 93.1000 0.0000 -39.2794 -48.5242 -138.8732 -71.0090 -0.6818 87.9900 86.9254 63.2453 -0.6568 3.9264 11.3521 11.4910 -128.4833 20.3604 178.4865 -131.9139 54.5237 171.6061 -0.3870 -11.4226 -11.9796 -112.9999 38.4204 -81.7980 -4.5057 1.9094 -127.1509 -2.9196 -0.1124 1.6614 -1.2011 1.2595 21.1710 -69.0265 -46.1496 127.9383 4.7814 3.7151 129.9957 -0.2020 -0.6501 -1.4787 -67.1434 3.8193 101.5030 -2.6281 36.3374 -7.3916 -5.1818 -9.0514 -0.1995 10.6530 -22.4468 15.0438 -12.9987 13.7409 103.9818 6.1384 58.4316 10.9415 -5.0651 -12.7239 1.1116 -0.1056 -4.0620 -3.3862 
0.0000 93.1000 0.0000 -34.0726 -52.2647 -132.8715 -71.0046 -0.4815 87.9893 86.9771 63.8040 -0.2145 4.2855 11.5026 11.5731 -127.1463 21.7566 177.9131 -134.2511 56.9403 173.9047 0.7143 -11.8052 -11.8580 -115.2694 39.2522 -84.8289 -2.5909 1.6941 -127.5623 -2.6340 -0.1871 1.4263 -0.2334 1.3950 18.2131 -71.0369 -47.2874 128.9387 8.1167 5.6827 128.1188 -0.0575 -0.5265 -0.9793 -66.0885 5.5715 99.7371 -3.1288 36.4465 -6.0898 -5.0811 -8.2068 -0.9041 10.4057 -23.3241 13.7949 -14.3409 11.1267 103.2415 5.0495 58.1900 8.9553 -5.2045 -14.8137 1.3880 0.2884 -4.1707 -1.9670 
0.0000 93.1000 0.0000 -26.8598 -56.8876 -124.8583 -71.0041 -0.0838 87.9890 87.0768 64.2173 -0.2968 4.4469 11.9092 10.9714 -124.5182 22.8181 176.9418 -136.0386 58.7944 176.9490 0.2624 -12.1771 -11.0703 -115.2407 41.8982 -88.7695 -1.0892 0.4311 -126.1913 -2.6390 0.0878 1.2529 -0.3153 1.9747 17.0218 -74.1177 -47.0288 128.9200 8.5632 7.0519 127.0037 -0.0490 -0.7460 -0.9261 -65.8066 6.3931 99.4492 -2.9120 35.4289 -5.8811 -4.7505 -7.7884 -0.8166 10.0922 -22.0288 15.5154 -16.7931 7.9824 101.2906 4.6763 56.8905 7.6386 -4.4124 -15.5978 1.1145 0.2405 -5.2464 -3.6303 
0.0000 93.1000 0.0000 -18.3982 -60.8540 -115.6811 -71.0137 -0.0207 87.9856 85.9138 64.9540 0.7284 3.8057 12.8674 8.9679 -122.1492 23.5531 173.8384 -135.4122 59.8755 175.4810 -3.2759 -12.7680 -10.8406 -113.4781 43.7312 -91.8120 2.1077 -1.6399 -124.7888 -3.8379 0.5663 1.3426 -2.2924 2.8231 16.1197 -77.7772 -47.1102 127.8694 10.4398 8.2125 126.0024 -0.0962 -1.2245 -1.8515 -64.5838 7.7932 98.8899 -1.9185 34.2476 -4.3276 -6.4242 -8.2434 1.3532 9.6381 -19.7511 16.3173 -17.8339 4.5885 99.8237 5.3915 56.8025 6.0422 -5.3936 -15.9481 0.1936 -2.1658 -4.7676 -5.1678 
0.0000 93.1000 0.0000 -6.9432 -63.3194 -103.9035 -70.9978 -0.1874 87.9941 85.9573 65.1668 2.1659 4.2849 13.5559 8.6267 -120.3979 24.2610 174.0282 -139.2947 61.9466 -179.9508 -0.1884 -13.4375 -11.6545 -112.2259 44.3118 -95.6196 2.5760 -2.6809 -122.9740 -2.6332 0.0524 0.8039 -0.4023 3.4567 13.3670 -80.3402 -49.2700 128.1621 12.5939 9.0895 123.8553 0.1741 -0.4872 -0.1294 -64.0073 9.1030 100.1799 -2.0121 34.1816 -2.4260 -6.1521 -9.5786 -0.3630 7.9130 -18.0170 14.4967 -19.8930 1.2187 97.9603 3.4860 55.9554 5.1482 -6.2949 -16.6189 1.3922 0.7219 -4.8912 -7.0462 
0.0000 93.1000 0.0000 4.0488 -64.1600 -91.9338 -71.0017 -0.1365 87.9948 84.0973 65.0381 3.0490 3.6761 13.2171 8.9798 -119.3841 24.4949 172.9993 -141.7363 63.0869 -178.1008 -0.9734 -13.8688 -12.1364 -110.1088 45.3956 -99.0392 2.3662 -2.5942 -122.3228 -3.2408 0.1591 1.0448 -0.8098 3.8212 12.1361 -82.7886 -50.0466 125.8725 13.9896 10.1206 123.1073 0.1428 -0.3762 -0.1373 -62.2076 9.8910 99.7000 -1.5951 32.6714 -0.5979 -6.7419 -9.6909 0.1016 7.4866 -16.4276 13.3313 -21.0136 -1.5925 95.2691 4.0388 54.9706 3.7293 -5.1479 -16.2130 0.7812 0.5669 -4.4276 -9.1707 
